M48
METRIC,LZ,000.000
;FILE_FORMAT=3:3
;TYPE=PLATED
;Layer: PTH_Through
;EasyEDA v6.5.51, 2026-03-12 23:55:36
;53dc0e6eed4946769a20938672dcbcd5,63f6a820c93240c08cc213f52a56dcaa,10
;Gerber Generator version 0.2
;Holesize 1 = 0.800 mm
T01C0.800
;Holesize 2 = 1.000 mm
T02C1.000
;Holesize 3 = 1.600 mm
T03C1.600
%
G05
G90
T01
X125333Y075692
X123333Y075692
X146812Y066094
X146812Y076394
X153924Y066097
X153924Y076397
X171751Y054991
X169752Y054991
X171751Y062167
X169752Y062167
X176022Y054864
X178562Y054864
X182499Y048387
X179959Y048387
X177419Y048387
X174371Y048387
X171831Y048387
X169291Y048387
X198797Y048387
X196257Y048387
X193717Y048387
X190881Y048387
X188341Y048387
X185801Y048387
X184715Y060029
X195015Y060029
X172523Y042672
X182823Y042672
X184715Y063288
X195015Y063288
X167189Y039243
X177489Y039243
X184715Y053509
X195015Y053509
X187763Y042672
X198063Y042672
X184715Y056769
X195015Y056769
X181921Y039243
X192221Y039243
X153266Y062019
X153266Y051519
X150361Y062019
X150361Y051519
X147447Y062019
X147447Y051519
X176038Y062230
X178038Y062230
X150368Y064812
X150368Y076412
T02
X177444Y031560G85X177394Y031560
X177444Y028893G85X177394Y028893
X177444Y026480G85X177394Y026480
X177444Y023813G85X177394Y023813
X179984Y031560G85X179934Y031560
X182524Y031560G85X182474Y031560
X177444Y021400G85X177394Y021400
X177444Y018860G85X177394Y018860
X177444Y016320G85X177394Y016320
X177444Y013780G85X177394Y013780
X191220Y068199
X179620Y068199
X140335Y039294G85X140335Y039344
X140335Y041834G85X140335Y041884
X140335Y044374G85X140335Y044424
X140335Y046914G85X140335Y046964
X140335Y049454G85X140335Y049504
X140335Y051994G85X140335Y052044
X140335Y054534G85X140335Y054584
X140335Y057074G85X140335Y057124
X140335Y059614G85X140335Y059664
X140335Y062154G85X140335Y062204
X140335Y064694G85X140335Y064744
X140335Y067234G85X140335Y067284
X140335Y069774G85X140335Y069824
X140335Y072314G85X140335Y072364
X140335Y074854G85X140335Y074904
X140335Y077394G85X140335Y077444
X160655Y039344G85X160655Y039294
X160655Y041884G85X160655Y041834
X160655Y044424G85X160655Y044374
X160655Y046964G85X160655Y046914
X160655Y049504G85X160655Y049454
X160655Y052044G85X160655Y051994
X160655Y054584G85X160655Y054534
X160655Y057124G85X160655Y057074
X160655Y059664G85X160655Y059614
X160655Y062204G85X160655Y062154
X160655Y064744G85X160655Y064694
X160655Y067284G85X160655Y067234
X149340Y013462G85X149345Y013462
X146800Y013462G85X146805Y013462
X151880Y013462G85X151885Y013462
X154420Y013462G85X154425Y013462
X175477Y-002668
X175477Y-005208
X175477Y-007748
X176657Y068814G85X176657Y068864
X174117Y068814G85X174117Y068864
X171577Y068814G85X171577Y068864
X169037Y068814G85X169037Y068864
X202798Y066718
X196998Y068918
X136653Y048132
X136652Y045593
X136652Y043053
X182245Y-005207
X178689Y-005207
T03
X206923Y030163G85X206843Y030163
X206923Y025170G85X206843Y025170
X206923Y014923G85X206843Y014923
X206923Y020003G85X206843Y020003
X205606Y037338
X205606Y042418
X202184Y078763
X197104Y078763
X128517Y038979
X128517Y044059
X128517Y049139
X128517Y033899
X128517Y-001524
X128517Y003556
X128517Y008636
X128517Y-006604
X128517Y018727
X128517Y023807
X128517Y028887
X128517Y013647
X205613Y057658
X205613Y052578
X205613Y047498
X205613Y062738
X128524Y059309
X128524Y064389
X128524Y069469
X128524Y054229
X192024Y078770
X186944Y078770
X181864Y078770
X155600Y022733
X150520Y022733
X145440Y022733
X135382Y077851
X130302Y077851
M30
