G04 Layer: TopSilkscreenLayer*
G04 EasyEDA v6.5.51, 2026-03-12 23:55:36*
G04 53dc0e6eed4946769a20938672dcbcd5,63f6a820c93240c08cc213f52a56dcaa,10*
G04 Gerber Generator version 0.2*
G04 Scale: 100 percent, Rotated: No, Reflected: No *
G04 Dimensions in millimeters *
G04 leading zeros omitted , absolute positions ,4 integer and 5 decimal *
%FSLAX45Y45*%
%MOMM*%

%ADD10C,0.1524*%
%ADD11C,0.1750*%
%ADD12C,0.2032*%
%ADD13C,0.2540*%
%ADD14C,0.2007*%
%ADD15C,0.2000*%
%ADD16C,0.1600*%
%ADD17C,0.0131*%
%ADD18C,0.3000*%

%LPD*%
D10*
X20013985Y4014978D02*
G01*
X20003571Y4009644D01*
X19993157Y3999229D01*
X19988077Y3989070D01*
X19988077Y3968242D01*
X19993157Y3957828D01*
X20003571Y3947413D01*
X20013985Y3942079D01*
X20029733Y3937000D01*
X20055641Y3937000D01*
X20071135Y3942079D01*
X20081549Y3947413D01*
X20091963Y3957828D01*
X20097043Y3968242D01*
X20097043Y3989070D01*
X20091963Y3999229D01*
X20081549Y4009644D01*
X20071135Y4014978D01*
X19988077Y4049268D02*
G01*
X20097043Y4049268D01*
X19988077Y4049268D02*
G01*
X20097043Y4121912D01*
X19988077Y4121912D02*
G01*
X20097043Y4121912D01*
X20013985Y4161536D02*
G01*
X20008905Y4161536D01*
X19998491Y4166615D01*
X19993157Y4171950D01*
X19988077Y4182110D01*
X19988077Y4202937D01*
X19993157Y4213352D01*
X19998491Y4218686D01*
X20008905Y4223765D01*
X20019319Y4223765D01*
X20029733Y4218686D01*
X20045227Y4208271D01*
X20097043Y4156202D01*
X20097043Y4229100D01*
X12377521Y7200392D02*
G01*
X12382601Y7189978D01*
X12393015Y7179563D01*
X12403429Y7174484D01*
X12424257Y7174484D01*
X12434671Y7179563D01*
X12445085Y7189978D01*
X12450165Y7200392D01*
X12455499Y7216139D01*
X12455499Y7242047D01*
X12450165Y7257542D01*
X12445085Y7267955D01*
X12434671Y7278370D01*
X12424257Y7283450D01*
X12403429Y7283450D01*
X12393015Y7278370D01*
X12382601Y7267955D01*
X12377521Y7257542D01*
X12270333Y7174484D02*
G01*
X12322403Y7283450D01*
X12343231Y7174484D02*
G01*
X12270333Y7174484D01*
X14413552Y7124514D02*
G01*
X14522518Y7124514D01*
X14413552Y7124514D02*
G01*
X14413552Y7171250D01*
X14418632Y7186744D01*
X14423966Y7192078D01*
X14434126Y7197158D01*
X14444540Y7197158D01*
X14454954Y7192078D01*
X14460288Y7186744D01*
X14465368Y7171250D01*
X14465368Y7124514D01*
X14465368Y7160836D02*
G01*
X14522518Y7197158D01*
X14434126Y7231448D02*
G01*
X14429046Y7241862D01*
X14413552Y7257610D01*
X14522518Y7257610D01*
X14413552Y7302314D02*
G01*
X14413552Y7359464D01*
X14454954Y7328222D01*
X14454954Y7343716D01*
X14460288Y7354130D01*
X14465368Y7359464D01*
X14481116Y7364544D01*
X14491276Y7364544D01*
X14507024Y7359464D01*
X14517438Y7349050D01*
X14522518Y7333302D01*
X14522518Y7317808D01*
X14517438Y7302314D01*
X14512104Y7296980D01*
X14501690Y7291900D01*
X15124684Y7124700D02*
G01*
X15233650Y7124700D01*
X15124684Y7124700D02*
G01*
X15124684Y7171436D01*
X15129763Y7186929D01*
X15135097Y7192263D01*
X15145511Y7197344D01*
X15155925Y7197344D01*
X15166340Y7192263D01*
X15171420Y7186929D01*
X15176500Y7171436D01*
X15176500Y7124700D01*
X15176500Y7161021D02*
G01*
X15233650Y7197344D01*
X15145511Y7231634D02*
G01*
X15140177Y7242047D01*
X15124684Y7257795D01*
X15233650Y7257795D01*
X15124684Y7343902D02*
G01*
X15197327Y7292086D01*
X15197327Y7369810D01*
X15124684Y7343902D02*
G01*
X15233650Y7343902D01*
X17019371Y5130292D02*
G01*
X17024705Y5119878D01*
X17035119Y5109463D01*
X17045279Y5104384D01*
X17066107Y5104384D01*
X17076521Y5109463D01*
X17086935Y5119878D01*
X17092269Y5130292D01*
X17097349Y5146039D01*
X17097349Y5171947D01*
X17092269Y5187442D01*
X17086935Y5197855D01*
X17076521Y5208270D01*
X17066107Y5213350D01*
X17045279Y5213350D01*
X17035119Y5208270D01*
X17024705Y5197855D01*
X17019371Y5187442D01*
X16933265Y5104384D02*
G01*
X16985081Y5177028D01*
X16907103Y5177028D01*
X16933265Y5104384D02*
G01*
X16933265Y5213350D01*
X17019371Y5847842D02*
G01*
X17024705Y5837428D01*
X17035119Y5827013D01*
X17045279Y5821934D01*
X17066107Y5821934D01*
X17076521Y5827013D01*
X17086935Y5837428D01*
X17092269Y5847842D01*
X17097349Y5863589D01*
X17097349Y5889497D01*
X17092269Y5904992D01*
X17086935Y5915405D01*
X17076521Y5925820D01*
X17066107Y5930900D01*
X17045279Y5930900D01*
X17035119Y5925820D01*
X17024705Y5915405D01*
X17019371Y5904992D01*
X16922851Y5837428D02*
G01*
X16927931Y5827013D01*
X16943679Y5821934D01*
X16953839Y5821934D01*
X16969587Y5827013D01*
X16980001Y5842762D01*
X16985081Y5868670D01*
X16985081Y5894578D01*
X16980001Y5915405D01*
X16969587Y5925820D01*
X16953839Y5930900D01*
X16948759Y5930900D01*
X16933265Y5925820D01*
X16922851Y5915405D01*
X16917517Y5899912D01*
X16917517Y5894578D01*
X16922851Y5879084D01*
X16933265Y5868670D01*
X16948759Y5863589D01*
X16953839Y5863589D01*
X16969587Y5868670D01*
X16980001Y5879084D01*
X16985081Y5894578D01*
X17781777Y5931407D02*
G01*
X17776443Y5941821D01*
X17766029Y5952236D01*
X17755870Y5957315D01*
X17735041Y5957315D01*
X17724627Y5952236D01*
X17714213Y5941821D01*
X17708879Y5931407D01*
X17703800Y5915660D01*
X17703800Y5889752D01*
X17708879Y5874257D01*
X17714213Y5863844D01*
X17724627Y5853429D01*
X17735041Y5848350D01*
X17755870Y5848350D01*
X17766029Y5853429D01*
X17776443Y5863844D01*
X17781777Y5874257D01*
X17878298Y5957315D02*
G01*
X17826481Y5957315D01*
X17821148Y5910579D01*
X17826481Y5915660D01*
X17841975Y5920994D01*
X17857470Y5920994D01*
X17873218Y5915660D01*
X17883631Y5905500D01*
X17888711Y5889752D01*
X17888711Y5879337D01*
X17883631Y5863844D01*
X17873218Y5853429D01*
X17857470Y5848350D01*
X17841975Y5848350D01*
X17826481Y5853429D01*
X17821148Y5858510D01*
X17816068Y5868923D01*
X19937222Y7329683D02*
G01*
X19942556Y7319269D01*
X19952970Y7308855D01*
X19963129Y7303775D01*
X19983958Y7303775D01*
X19994372Y7308855D01*
X20004786Y7319269D01*
X20010120Y7329683D01*
X20015200Y7345431D01*
X20015200Y7371339D01*
X20010120Y7386833D01*
X20004786Y7397247D01*
X19994372Y7407661D01*
X19983958Y7412741D01*
X19963129Y7412741D01*
X19952970Y7407661D01*
X19942556Y7397247D01*
X19937222Y7386833D01*
X19902931Y7303775D02*
G01*
X19902931Y7412741D01*
X19902931Y7303775D02*
G01*
X19830288Y7412741D01*
X19830288Y7303775D02*
G01*
X19830288Y7412741D01*
X19743927Y7303775D02*
G01*
X19795998Y7376419D01*
X19718020Y7376419D01*
X19743927Y7303775D02*
G01*
X19743927Y7412741D01*
X18567400Y6425184D02*
G01*
X18567400Y6534150D01*
X18567400Y6425184D02*
G01*
X18531077Y6425184D01*
X18515329Y6430263D01*
X18505170Y6440678D01*
X18499836Y6451092D01*
X18494756Y6466839D01*
X18494756Y6492747D01*
X18499836Y6508242D01*
X18505170Y6518655D01*
X18515329Y6529070D01*
X18531077Y6534150D01*
X18567400Y6534150D01*
X18455131Y6451092D02*
G01*
X18455131Y6446012D01*
X18450052Y6435597D01*
X18444718Y6430263D01*
X18434304Y6425184D01*
X18413729Y6425184D01*
X18403316Y6430263D01*
X18397981Y6435597D01*
X18392902Y6446012D01*
X18392902Y6456426D01*
X18397981Y6466839D01*
X18408395Y6482334D01*
X18460466Y6534150D01*
X18387568Y6534150D01*
X16333216Y5854700D02*
G01*
X16224250Y5854700D01*
X16333216Y5854700D02*
G01*
X16333216Y5807963D01*
X16328136Y5792470D01*
X16322802Y5787136D01*
X16312388Y5782055D01*
X16296893Y5782055D01*
X16286479Y5787136D01*
X16281400Y5792470D01*
X16276066Y5807963D01*
X16276066Y5854700D01*
X16312388Y5747765D02*
G01*
X16317722Y5737352D01*
X16333216Y5721604D01*
X16224250Y5721604D01*
X14262861Y7843520D02*
G01*
X14189963Y7843520D01*
X14262861Y7843520D02*
G01*
X14262861Y7812278D01*
X14259306Y7802118D01*
X14255750Y7798562D01*
X14248891Y7795005D01*
X14242034Y7795005D01*
X14235175Y7798562D01*
X14231620Y7802118D01*
X14228063Y7812278D01*
X14228063Y7843520D01*
X14228063Y7819389D02*
G01*
X14189963Y7795005D01*
X14252447Y7723631D02*
G01*
X14259306Y7730744D01*
X14262861Y7741158D01*
X14262861Y7754873D01*
X14259306Y7765287D01*
X14252447Y7772145D01*
X14245590Y7772145D01*
X14238477Y7768844D01*
X14235175Y7765287D01*
X14231620Y7758429D01*
X14224761Y7737602D01*
X14221206Y7730744D01*
X14217650Y7727187D01*
X14210791Y7723631D01*
X14200377Y7723631D01*
X14193520Y7730744D01*
X14189963Y7741158D01*
X14189963Y7754873D01*
X14193520Y7765287D01*
X14200377Y7772145D01*
X14262861Y7676642D02*
G01*
X14189963Y7676642D01*
X14262861Y7700771D02*
G01*
X14262861Y7652258D01*
X14262861Y7307834D02*
G01*
X14189963Y7335520D01*
X14262861Y7307834D02*
G01*
X14189963Y7280147D01*
X14214347Y7325105D02*
G01*
X14214347Y7290562D01*
X14262861Y7257287D02*
G01*
X14189963Y7257287D01*
X14262861Y7257287D02*
G01*
X14262861Y7226045D01*
X14259306Y7215631D01*
X14255750Y7212329D01*
X14248891Y7208773D01*
X14242034Y7208773D01*
X14235175Y7212329D01*
X14231620Y7215631D01*
X14228063Y7226045D01*
X14228063Y7257287D01*
X14228063Y7233158D02*
G01*
X14189963Y7208773D01*
X14262861Y7158228D02*
G01*
X14262861Y7165086D01*
X14259306Y7172197D01*
X14248891Y7175500D01*
X14189963Y7175500D01*
X14238477Y7185913D02*
G01*
X14238477Y7161784D01*
X14262861Y7531862D02*
G01*
X14262861Y7493762D01*
X14235175Y7514589D01*
X14235175Y7504176D01*
X14231620Y7497318D01*
X14228063Y7493762D01*
X14217650Y7490205D01*
X14210791Y7490205D01*
X14200377Y7493762D01*
X14193520Y7500620D01*
X14189963Y7511034D01*
X14189963Y7521447D01*
X14193520Y7531862D01*
X14197075Y7535418D01*
X14203934Y7538720D01*
X14262861Y7467345D02*
G01*
X14189963Y7439660D01*
X14262861Y7411973D02*
G01*
X14189963Y7439660D01*
X14194790Y5520944D02*
G01*
X14198091Y5520944D01*
X14204950Y5517642D01*
X14208506Y5514086D01*
X14212061Y5507228D01*
X14212061Y5493257D01*
X14208506Y5486400D01*
X14204950Y5482844D01*
X14198091Y5479542D01*
X14191234Y5479542D01*
X14184375Y5482844D01*
X14173961Y5489955D01*
X14139163Y5524500D01*
X14139163Y5475986D01*
X14212061Y5411470D02*
G01*
X14212061Y5446268D01*
X14180820Y5449570D01*
X14184375Y5446268D01*
X14187677Y5435854D01*
X14187677Y5425439D01*
X14184375Y5415026D01*
X14177263Y5408168D01*
X14166850Y5404612D01*
X14159991Y5404612D01*
X14149577Y5408168D01*
X14142720Y5415026D01*
X14139163Y5425439D01*
X14139163Y5435854D01*
X14142720Y5446268D01*
X14146275Y5449570D01*
X14153134Y5453126D01*
X14194790Y5774944D02*
G01*
X14198091Y5774944D01*
X14204950Y5771642D01*
X14208506Y5768086D01*
X14212061Y5761228D01*
X14212061Y5747257D01*
X14208506Y5740400D01*
X14204950Y5736844D01*
X14198091Y5733542D01*
X14191234Y5733542D01*
X14184375Y5736844D01*
X14173961Y5743955D01*
X14139163Y5778500D01*
X14139163Y5729986D01*
X14212061Y5672581D02*
G01*
X14163547Y5707126D01*
X14163547Y5655310D01*
X14212061Y5672581D02*
G01*
X14139163Y5672581D01*
X14262861Y5987034D02*
G01*
X14189963Y6014720D01*
X14262861Y5987034D02*
G01*
X14189963Y5959347D01*
X14214347Y6004305D02*
G01*
X14214347Y5969762D01*
X14262861Y5929629D02*
G01*
X14262861Y5891529D01*
X14235175Y5912357D01*
X14235175Y5901944D01*
X14231620Y5894831D01*
X14228063Y5891529D01*
X14217650Y5887973D01*
X14210791Y5887973D01*
X14200377Y5891529D01*
X14193520Y5898387D01*
X14189963Y5908802D01*
X14189963Y5919215D01*
X14193520Y5929629D01*
X14197075Y5932931D01*
X14203934Y5936487D01*
X14262861Y6241034D02*
G01*
X14189963Y6268720D01*
X14262861Y6241034D02*
G01*
X14189963Y6213347D01*
X14214347Y6258305D02*
G01*
X14214347Y6223762D01*
X14245590Y6186931D02*
G01*
X14248891Y6186931D01*
X14255750Y6183629D01*
X14259306Y6180073D01*
X14262861Y6173215D01*
X14262861Y6159245D01*
X14259306Y6152387D01*
X14255750Y6148831D01*
X14248891Y6145529D01*
X14242034Y6145529D01*
X14235175Y6148831D01*
X14224761Y6155944D01*
X14189963Y6190487D01*
X14189963Y6141973D01*
X14262861Y6495034D02*
G01*
X14189963Y6522720D01*
X14262861Y6495034D02*
G01*
X14189963Y6467347D01*
X14214347Y6512305D02*
G01*
X14214347Y6477762D01*
X14248891Y6444487D02*
G01*
X14252447Y6437629D01*
X14262861Y6427215D01*
X14189963Y6427215D01*
X14262861Y6749034D02*
G01*
X14189963Y6776720D01*
X14262861Y6749034D02*
G01*
X14189963Y6721347D01*
X14214347Y6766305D02*
G01*
X14214347Y6731762D01*
X14262861Y6677660D02*
G01*
X14259306Y6688073D01*
X14248891Y6694931D01*
X14231620Y6698487D01*
X14221206Y6698487D01*
X14203934Y6694931D01*
X14193520Y6688073D01*
X14189963Y6677660D01*
X14189963Y6670802D01*
X14193520Y6660387D01*
X14203934Y6653529D01*
X14221206Y6649973D01*
X14231620Y6649973D01*
X14248891Y6653529D01*
X14259306Y6660387D01*
X14262861Y6670802D01*
X14262861Y6677660D01*
X15976091Y5201920D02*
G01*
X15979647Y5195062D01*
X15990061Y5184647D01*
X15917163Y5184647D01*
X15990061Y5140960D02*
G01*
X15986506Y5151373D01*
X15976091Y5158231D01*
X15958820Y5161787D01*
X15948406Y5161787D01*
X15931134Y5158231D01*
X15920720Y5151373D01*
X15917163Y5140960D01*
X15917163Y5134102D01*
X15920720Y5123687D01*
X15931134Y5116829D01*
X15948406Y5113273D01*
X15958820Y5113273D01*
X15976091Y5116829D01*
X15986506Y5123687D01*
X15990061Y5134102D01*
X15990061Y5140960D01*
X15856798Y4988224D02*
G01*
X15867484Y4985590D01*
X15874913Y4979357D01*
X15879363Y4969291D01*
X15879650Y4966002D01*
X15877016Y4955319D01*
X15870803Y4947635D01*
X15860717Y4943439D01*
X15857174Y4943129D01*
X15846513Y4945509D01*
X15839061Y4951999D01*
X15834611Y4962062D01*
X15834324Y4965352D01*
X15836958Y4976035D01*
X15843191Y4983464D01*
X15856798Y4988224D01*
X15874004Y4989730D01*
X15891522Y4987693D01*
X15902492Y4981770D01*
X15906943Y4971704D01*
X15907542Y4964874D01*
X15904905Y4954188D01*
X15898385Y4950048D01*
X14289735Y5135422D02*
G01*
X14296847Y5128564D01*
X14307007Y5125008D01*
X14320977Y5125008D01*
X14331391Y5128564D01*
X14338249Y5135422D01*
X14338249Y5142280D01*
X14334947Y5149392D01*
X14331391Y5152694D01*
X14324533Y5156250D01*
X14303705Y5163108D01*
X14296847Y5166664D01*
X14293291Y5170220D01*
X14289735Y5177078D01*
X14289735Y5187492D01*
X14296847Y5194350D01*
X14307007Y5197906D01*
X14320977Y5197906D01*
X14331391Y5194350D01*
X14338249Y5187492D01*
X14215059Y5142280D02*
G01*
X14218361Y5135422D01*
X14225473Y5128564D01*
X14232331Y5125008D01*
X14246047Y5125008D01*
X14253159Y5128564D01*
X14260017Y5135422D01*
X14263573Y5142280D01*
X14266875Y5152694D01*
X14266875Y5170220D01*
X14263573Y5180380D01*
X14260017Y5187492D01*
X14253159Y5194350D01*
X14246047Y5197906D01*
X14232331Y5197906D01*
X14225473Y5194350D01*
X14218361Y5187492D01*
X14215059Y5180380D01*
X14192199Y5125008D02*
G01*
X14192199Y5197906D01*
X14143685Y5125008D02*
G01*
X14192199Y5173522D01*
X14174927Y5156250D02*
G01*
X14143685Y5197906D01*
X14338249Y4883962D02*
G01*
X14338249Y4944414D01*
X14338249Y4883962D02*
G01*
X14315135Y4944414D01*
X14292021Y4883962D02*
G01*
X14315135Y4944414D01*
X14292021Y4883962D02*
G01*
X14292021Y4944414D01*
X14255699Y4883962D02*
G01*
X14261541Y4886756D01*
X14267383Y4892598D01*
X14270177Y4898440D01*
X14272971Y4907076D01*
X14272971Y4921300D01*
X14270177Y4930190D01*
X14267383Y4935778D01*
X14261541Y4941620D01*
X14255699Y4944414D01*
X14244269Y4944414D01*
X14238427Y4941620D01*
X14232585Y4935778D01*
X14229791Y4930190D01*
X14226997Y4921300D01*
X14226997Y4907076D01*
X14229791Y4898440D01*
X14232585Y4892598D01*
X14238427Y4886756D01*
X14244269Y4883962D01*
X14255699Y4883962D01*
X14167307Y4892598D02*
G01*
X14173149Y4886756D01*
X14181785Y4883962D01*
X14193469Y4883962D01*
X14202105Y4886756D01*
X14207947Y4892598D01*
X14207947Y4898440D01*
X14204899Y4904028D01*
X14202105Y4907076D01*
X14196263Y4909870D01*
X14178991Y4915712D01*
X14173149Y4918506D01*
X14170355Y4921300D01*
X14167307Y4927142D01*
X14167307Y4935778D01*
X14173149Y4941620D01*
X14181785Y4944414D01*
X14193469Y4944414D01*
X14202105Y4941620D01*
X14207947Y4935778D01*
X14148257Y4883962D02*
G01*
X14148257Y4944414D01*
X14338249Y4629962D02*
G01*
X14338249Y4690414D01*
X14338249Y4629962D02*
G01*
X14315135Y4690414D01*
X14292021Y4629962D02*
G01*
X14315135Y4690414D01*
X14292021Y4629962D02*
G01*
X14292021Y4690414D01*
X14272971Y4629962D02*
G01*
X14272971Y4690414D01*
X14213535Y4638598D02*
G01*
X14219377Y4632756D01*
X14228013Y4629962D01*
X14239697Y4629962D01*
X14248333Y4632756D01*
X14253921Y4638598D01*
X14253921Y4644440D01*
X14251127Y4650028D01*
X14248333Y4653076D01*
X14242491Y4655870D01*
X14225219Y4661712D01*
X14219377Y4664506D01*
X14216583Y4667300D01*
X14213535Y4673142D01*
X14213535Y4681778D01*
X14219377Y4687620D01*
X14228013Y4690414D01*
X14239697Y4690414D01*
X14248333Y4687620D01*
X14253921Y4681778D01*
X14177213Y4629962D02*
G01*
X14183055Y4632756D01*
X14188897Y4638598D01*
X14191691Y4644440D01*
X14194485Y4653076D01*
X14194485Y4667300D01*
X14191691Y4676190D01*
X14188897Y4681778D01*
X14183055Y4687620D01*
X14177213Y4690414D01*
X14165783Y4690414D01*
X14159941Y4687620D01*
X14154099Y4681778D01*
X14151305Y4676190D01*
X14148257Y4667300D01*
X14148257Y4653076D01*
X14151305Y4644440D01*
X14154099Y4638598D01*
X14159941Y4632756D01*
X14165783Y4629962D01*
X14177213Y4629962D01*
X15979647Y4188205D02*
G01*
X15986506Y4195318D01*
X15990061Y4205478D01*
X15990061Y4219447D01*
X15986506Y4229862D01*
X15979647Y4236720D01*
X15972790Y4236720D01*
X15965677Y4233418D01*
X15962375Y4229862D01*
X15958820Y4223004D01*
X15951961Y4202176D01*
X15948406Y4195318D01*
X15944850Y4191762D01*
X15937991Y4188205D01*
X15927577Y4188205D01*
X15920720Y4195318D01*
X15917163Y4205478D01*
X15917163Y4219447D01*
X15920720Y4229862D01*
X15927577Y4236720D01*
X15972790Y4113529D02*
G01*
X15979647Y4116831D01*
X15986506Y4123944D01*
X15990061Y4130802D01*
X15990061Y4144518D01*
X15986506Y4151629D01*
X15979647Y4158487D01*
X15972790Y4162044D01*
X15962375Y4165345D01*
X15944850Y4165345D01*
X15934690Y4162044D01*
X15927577Y4158487D01*
X15920720Y4151629D01*
X15917163Y4144518D01*
X15917163Y4130802D01*
X15920720Y4123944D01*
X15927577Y4116831D01*
X15934690Y4113529D01*
X15990061Y4090670D02*
G01*
X15917163Y4090670D01*
X15917163Y4090670D02*
G01*
X15917163Y4049013D01*
X14287500Y4380737D02*
G01*
X14287500Y4453636D01*
X14287500Y4380737D02*
G01*
X14256258Y4380737D01*
X14245843Y4384294D01*
X14242541Y4387850D01*
X14238986Y4394707D01*
X14238986Y4401565D01*
X14242541Y4408423D01*
X14245843Y4411979D01*
X14256258Y4415536D01*
X14287500Y4415536D01*
X14263370Y4415536D02*
G01*
X14238986Y4453636D01*
X14216125Y4405121D02*
G01*
X14178025Y4453636D01*
X14178025Y4405121D02*
G01*
X14216125Y4453636D01*
X15990061Y6827520D02*
G01*
X15917163Y6827520D01*
X15990061Y6827520D02*
G01*
X15990061Y6796278D01*
X15986506Y6786118D01*
X15982950Y6782562D01*
X15976091Y6779005D01*
X15969234Y6779005D01*
X15962375Y6782562D01*
X15958820Y6786118D01*
X15955263Y6796278D01*
X15955263Y6827520D02*
G01*
X15955263Y6796278D01*
X15951961Y6786118D01*
X15948406Y6782562D01*
X15941547Y6779005D01*
X15931134Y6779005D01*
X15924275Y6782562D01*
X15920720Y6786118D01*
X15917163Y6796278D01*
X15917163Y6827520D01*
X15990061Y6728460D02*
G01*
X15917163Y6756145D01*
X15990061Y6728460D02*
G01*
X15917163Y6700773D01*
X15941547Y6745731D02*
G01*
X15941547Y6711187D01*
X15990061Y6653784D02*
G01*
X15917163Y6653784D01*
X15990061Y6677913D02*
G01*
X15990061Y6629400D01*
X15990061Y6522720D02*
G01*
X15917163Y6522720D01*
X15990061Y6522720D02*
G01*
X15990061Y6477762D01*
X15955263Y6522720D02*
G01*
X15955263Y6495034D01*
X15917163Y6522720D02*
G01*
X15917163Y6477762D01*
X15965677Y6454902D02*
G01*
X15917163Y6454902D01*
X15951961Y6454902D02*
G01*
X15962375Y6444487D01*
X15965677Y6437629D01*
X15965677Y6427215D01*
X15962375Y6420357D01*
X15951961Y6416802D01*
X15917163Y6416802D01*
X15990061Y6319520D02*
G01*
X15937991Y6319520D01*
X15927577Y6316218D01*
X15920720Y6309105D01*
X15917163Y6298692D01*
X15917163Y6291834D01*
X15920720Y6281420D01*
X15927577Y6274562D01*
X15937991Y6271005D01*
X15990061Y6271005D01*
X15979647Y6199631D02*
G01*
X15986506Y6206744D01*
X15990061Y6217157D01*
X15990061Y6230873D01*
X15986506Y6241287D01*
X15979647Y6248145D01*
X15972790Y6248145D01*
X15965677Y6244844D01*
X15962375Y6241287D01*
X15958820Y6234429D01*
X15951961Y6213602D01*
X15948406Y6206744D01*
X15944850Y6203187D01*
X15937991Y6199631D01*
X15927577Y6199631D01*
X15920720Y6206744D01*
X15917163Y6217157D01*
X15917163Y6230873D01*
X15920720Y6241287D01*
X15927577Y6248145D01*
X15990061Y6176771D02*
G01*
X15917163Y6176771D01*
X15990061Y6176771D02*
G01*
X15990061Y6145784D01*
X15986506Y6135370D01*
X15982950Y6131813D01*
X15976091Y6128257D01*
X15969234Y6128257D01*
X15962375Y6131813D01*
X15958820Y6135370D01*
X15955263Y6145784D01*
X15955263Y6176771D02*
G01*
X15955263Y6145784D01*
X15951961Y6135370D01*
X15948406Y6131813D01*
X15941547Y6128257D01*
X15931134Y6128257D01*
X15924275Y6131813D01*
X15920720Y6135370D01*
X15917163Y6145784D01*
X15917163Y6176771D01*
X15976091Y6014720D02*
G01*
X15979647Y6007862D01*
X15990061Y5997447D01*
X15917163Y5997447D01*
X15990061Y5967729D02*
G01*
X15990061Y5929629D01*
X15962375Y5950457D01*
X15962375Y5940044D01*
X15958820Y5932931D01*
X15955263Y5929629D01*
X15944850Y5926073D01*
X15937991Y5926073D01*
X15927577Y5929629D01*
X15920720Y5936487D01*
X15917163Y5946902D01*
X15917163Y5957315D01*
X15920720Y5967729D01*
X15924275Y5971031D01*
X15931134Y5974587D01*
X15979647Y3934205D02*
G01*
X15986506Y3941318D01*
X15990061Y3951478D01*
X15990061Y3965447D01*
X15986506Y3975862D01*
X15979647Y3982720D01*
X15972790Y3982720D01*
X15965677Y3979418D01*
X15962375Y3975862D01*
X15958820Y3969004D01*
X15951961Y3948176D01*
X15948406Y3941318D01*
X15944850Y3937762D01*
X15937991Y3934205D01*
X15927577Y3934205D01*
X15920720Y3941318D01*
X15917163Y3951478D01*
X15917163Y3965447D01*
X15920720Y3975862D01*
X15927577Y3982720D01*
X15990061Y3911345D02*
G01*
X15917163Y3911345D01*
X15990061Y3911345D02*
G01*
X15990061Y3887215D01*
X15986506Y3876802D01*
X15979647Y3869944D01*
X15972790Y3866387D01*
X15962375Y3862831D01*
X15944850Y3862831D01*
X15934690Y3866387D01*
X15927577Y3869944D01*
X15920720Y3876802D01*
X15917163Y3887215D01*
X15917163Y3911345D01*
X15990061Y3812286D02*
G01*
X15917163Y3839971D01*
X15990061Y3812286D02*
G01*
X15917163Y3784600D01*
X15941547Y3829557D02*
G01*
X15941547Y3795013D01*
X14263370Y4126737D02*
G01*
X14263370Y4199636D01*
X14287500Y4126737D02*
G01*
X14238986Y4126737D01*
X14216125Y4151121D02*
G01*
X14178025Y4199636D01*
X14178025Y4151121D02*
G01*
X14216125Y4199636D01*
X15843191Y4729464D02*
G01*
X15836648Y4725578D01*
X15834014Y4714895D01*
X15834611Y4708062D01*
X15839061Y4697999D01*
X15850054Y4691821D01*
X15867550Y4690036D01*
X15884756Y4691542D01*
X15898385Y4696048D01*
X15904596Y4703732D01*
X15907232Y4714415D01*
X15906943Y4717704D01*
X15902492Y4727770D01*
X15895063Y4734003D01*
X15884380Y4736637D01*
X15880836Y4736327D01*
X15870773Y4731877D01*
X15864537Y4724448D01*
X15861903Y4713765D01*
X15862190Y4710475D01*
X15866640Y4700412D01*
X15874093Y4693922D01*
X15884756Y4691542D01*
X14245590Y7029704D02*
G01*
X14252447Y7033005D01*
X14259306Y7040118D01*
X14262861Y7046976D01*
X14262861Y7060692D01*
X14259306Y7067804D01*
X14252447Y7074662D01*
X14245590Y7078218D01*
X14235175Y7081520D01*
X14217650Y7081520D01*
X14207490Y7078218D01*
X14200377Y7074662D01*
X14193520Y7067804D01*
X14189963Y7060692D01*
X14189963Y7046976D01*
X14193520Y7040118D01*
X14200377Y7033005D01*
X14207490Y7029704D01*
X14217650Y7029704D01*
X14217650Y7046976D02*
G01*
X14217650Y7029704D01*
X14262861Y7006844D02*
G01*
X14189963Y7006844D01*
X14262861Y7006844D02*
G01*
X14189963Y6958329D01*
X14262861Y6958329D02*
G01*
X14189963Y6958329D01*
X14262861Y6935470D02*
G01*
X14189963Y6935470D01*
X14262861Y6935470D02*
G01*
X14262861Y6911086D01*
X14259306Y6900671D01*
X14252447Y6893813D01*
X14245590Y6890258D01*
X14235175Y6886955D01*
X14217650Y6886955D01*
X14207490Y6890258D01*
X14200377Y6893813D01*
X14193520Y6900671D01*
X14189963Y6911086D01*
X14189963Y6935470D01*
X14287500Y3872737D02*
G01*
X14287500Y3945636D01*
X14287500Y3872737D02*
G01*
X14263370Y3872737D01*
X14252956Y3876294D01*
X14245843Y3883152D01*
X14242541Y3890010D01*
X14238986Y3900423D01*
X14238986Y3917950D01*
X14242541Y3928110D01*
X14245843Y3935221D01*
X14252956Y3942079D01*
X14263370Y3945636D01*
X14287500Y3945636D01*
X14181581Y3872737D02*
G01*
X14216125Y3921252D01*
X14164309Y3921252D01*
X14181581Y3872737D02*
G01*
X14181581Y3945636D01*
X15836138Y4481423D02*
G01*
X15836138Y4446879D01*
X15867379Y4443323D01*
X15863824Y4446879D01*
X15860522Y4457293D01*
X15860522Y4467707D01*
X15863824Y4478121D01*
X15870936Y4484979D01*
X15881350Y4488535D01*
X15888208Y4488535D01*
X15898622Y4484979D01*
X15905479Y4478121D01*
X15909036Y4467707D01*
X15909036Y4457293D01*
X15905479Y4446879D01*
X15901924Y4443323D01*
X15895066Y4440021D01*
X15925291Y5727700D02*
G01*
X15928847Y5720842D01*
X15939261Y5710428D01*
X15866363Y5710428D01*
X15921990Y5684012D02*
G01*
X15925291Y5684012D01*
X15932150Y5680710D01*
X15935706Y5677154D01*
X15939261Y5670295D01*
X15939261Y5656326D01*
X15935706Y5649468D01*
X15932150Y5645912D01*
X15925291Y5642610D01*
X15918434Y5642610D01*
X15911575Y5645912D01*
X15901161Y5652770D01*
X15866363Y5687568D01*
X15866363Y5639054D01*
X15862300Y5536692D02*
G01*
X15869158Y5540247D01*
X15879572Y5550662D01*
X15879572Y5477763D01*
X15902431Y5536692D02*
G01*
X15909290Y5540247D01*
X15919704Y5550662D01*
X15919704Y5477763D01*
X17990058Y4418584D02*
G01*
X18000472Y4423663D01*
X18010886Y4434078D01*
X18016220Y4444492D01*
X18021300Y4460239D01*
X18021300Y4486147D01*
X18016220Y4501642D01*
X18010886Y4512055D01*
X18000472Y4522470D01*
X17990058Y4527550D01*
X17969229Y4527550D01*
X17959070Y4522470D01*
X17948656Y4512055D01*
X17943322Y4501642D01*
X17938241Y4486147D01*
X17938241Y4460239D01*
X17943322Y4444492D01*
X17948656Y4434078D01*
X17959070Y4423663D01*
X17969229Y4418584D01*
X17990058Y4418584D01*
X17974563Y4506976D02*
G01*
X17943322Y4537963D01*
X17903952Y4439412D02*
G01*
X17893538Y4434078D01*
X17877790Y4418584D01*
X17877790Y4527550D01*
X17177258Y4418584D02*
G01*
X17187672Y4423663D01*
X17198086Y4434078D01*
X17203420Y4444492D01*
X17208500Y4460239D01*
X17208500Y4486147D01*
X17203420Y4501642D01*
X17198086Y4512055D01*
X17187672Y4522470D01*
X17177258Y4527550D01*
X17156429Y4527550D01*
X17146270Y4522470D01*
X17135856Y4512055D01*
X17130522Y4501642D01*
X17125441Y4486147D01*
X17125441Y4460239D01*
X17130522Y4444492D01*
X17135856Y4434078D01*
X17146270Y4423663D01*
X17156429Y4418584D01*
X17177258Y4418584D01*
X17161763Y4506976D02*
G01*
X17130522Y4537963D01*
X17085818Y4444492D02*
G01*
X17085818Y4439412D01*
X17080738Y4428997D01*
X17075404Y4423663D01*
X17064990Y4418584D01*
X17044416Y4418584D01*
X17034002Y4423663D01*
X17028668Y4428997D01*
X17023588Y4439412D01*
X17023588Y4449826D01*
X17028668Y4460239D01*
X17039081Y4475734D01*
X17091152Y4527550D01*
X17018254Y4527550D01*
X19619892Y4418586D02*
G01*
X19630306Y4423666D01*
X19640720Y4434080D01*
X19646054Y4444494D01*
X19651134Y4460242D01*
X19651134Y4486150D01*
X19646054Y4501644D01*
X19640720Y4512058D01*
X19630306Y4522472D01*
X19619892Y4527552D01*
X19599064Y4527552D01*
X19588904Y4522472D01*
X19578490Y4512058D01*
X19573156Y4501644D01*
X19568076Y4486150D01*
X19568076Y4460242D01*
X19573156Y4444494D01*
X19578490Y4434080D01*
X19588904Y4423666D01*
X19599064Y4418586D01*
X19619892Y4418586D01*
X19604398Y4506978D02*
G01*
X19573156Y4537966D01*
X19523372Y4418586D02*
G01*
X19466222Y4418586D01*
X19497464Y4460242D01*
X19481716Y4460242D01*
X19471302Y4465322D01*
X19466222Y4470402D01*
X19460888Y4486150D01*
X19460888Y4496564D01*
X19466222Y4512058D01*
X19476636Y4522472D01*
X19492130Y4527552D01*
X19507624Y4527552D01*
X19523372Y4522472D01*
X19528452Y4517392D01*
X19533786Y4506978D01*
X18828258Y4418584D02*
G01*
X18838672Y4423663D01*
X18849086Y4434078D01*
X18854420Y4444492D01*
X18859500Y4460239D01*
X18859500Y4486147D01*
X18854420Y4501642D01*
X18849086Y4512055D01*
X18838672Y4522470D01*
X18828258Y4527550D01*
X18807429Y4527550D01*
X18797270Y4522470D01*
X18786856Y4512055D01*
X18781522Y4501642D01*
X18776441Y4486147D01*
X18776441Y4460239D01*
X18781522Y4444492D01*
X18786856Y4434078D01*
X18797270Y4423663D01*
X18807429Y4418584D01*
X18828258Y4418584D01*
X18812763Y4506976D02*
G01*
X18781522Y4537963D01*
X18690081Y4418584D02*
G01*
X18742152Y4491228D01*
X18664174Y4491228D01*
X18690081Y4418584D02*
G01*
X18690081Y4527550D01*
X18986500Y6270584D02*
G01*
X18986500Y6161618D01*
X18986500Y6270584D02*
G01*
X19033236Y6270584D01*
X19048729Y6265504D01*
X19054063Y6260170D01*
X19059143Y6249756D01*
X19059143Y6239342D01*
X19054063Y6228928D01*
X19048729Y6223848D01*
X19033236Y6218768D01*
X18986500Y6218768D01*
X19022822Y6218768D02*
G01*
X19059143Y6161618D01*
X19093434Y6249756D02*
G01*
X19103848Y6255090D01*
X19119595Y6270584D01*
X19119595Y6161618D01*
X17767300Y4534915D02*
G01*
X17767300Y4425950D01*
X17767300Y4534915D02*
G01*
X17814036Y4534915D01*
X17829529Y4529836D01*
X17834863Y4524502D01*
X17839943Y4514087D01*
X17839943Y4503673D01*
X17834863Y4493260D01*
X17829529Y4488179D01*
X17814036Y4483100D01*
X17767300Y4483100D01*
X17803622Y4483100D02*
G01*
X17839943Y4425950D01*
X17879568Y4509007D02*
G01*
X17879568Y4514087D01*
X17884648Y4524502D01*
X17889981Y4529836D01*
X17900395Y4534915D01*
X17920970Y4534915D01*
X17931384Y4529836D01*
X17936718Y4524502D01*
X17941798Y4514087D01*
X17941798Y4503673D01*
X17936718Y4493260D01*
X17926304Y4477765D01*
X17874234Y4425950D01*
X17947131Y4425950D01*
X18986500Y6596550D02*
G01*
X18986500Y6487584D01*
X18986500Y6596550D02*
G01*
X19033236Y6596550D01*
X19048729Y6591470D01*
X19054063Y6586136D01*
X19059143Y6575722D01*
X19059143Y6565308D01*
X19054063Y6554894D01*
X19048729Y6549814D01*
X19033236Y6544734D01*
X18986500Y6544734D01*
X19022822Y6544734D02*
G01*
X19059143Y6487584D01*
X19145504Y6596550D02*
G01*
X19093434Y6523906D01*
X19171411Y6523906D01*
X19145504Y6596550D02*
G01*
X19145504Y6487584D01*
X17233900Y4192015D02*
G01*
X17233900Y4083050D01*
X17233900Y4192015D02*
G01*
X17280636Y4192015D01*
X17296129Y4186936D01*
X17301463Y4181602D01*
X17306543Y4171187D01*
X17306543Y4160773D01*
X17301463Y4150360D01*
X17296129Y4145279D01*
X17280636Y4140200D01*
X17233900Y4140200D01*
X17270222Y4140200D02*
G01*
X17306543Y4083050D01*
X17403318Y4192015D02*
G01*
X17351248Y4192015D01*
X17346168Y4145279D01*
X17351248Y4150360D01*
X17366995Y4155694D01*
X17382490Y4155694D01*
X17397984Y4150360D01*
X17408398Y4140200D01*
X17413731Y4124452D01*
X17413731Y4114037D01*
X17408398Y4098544D01*
X17397984Y4088129D01*
X17382490Y4083050D01*
X17366995Y4083050D01*
X17351248Y4088129D01*
X17346168Y4093210D01*
X17340834Y4103623D01*
X18986500Y5618650D02*
G01*
X18986500Y5509684D01*
X18986500Y5618650D02*
G01*
X19033236Y5618650D01*
X19048729Y5613570D01*
X19054063Y5608236D01*
X19059143Y5597822D01*
X19059143Y5587408D01*
X19054063Y5576994D01*
X19048729Y5571914D01*
X19033236Y5566834D01*
X18986500Y5566834D01*
X19022822Y5566834D02*
G01*
X19059143Y5509684D01*
X19155918Y5603156D02*
G01*
X19150584Y5613570D01*
X19135090Y5618650D01*
X19124675Y5618650D01*
X19109181Y5613570D01*
X19098768Y5597822D01*
X19093434Y5571914D01*
X19093434Y5546006D01*
X19098768Y5525178D01*
X19109181Y5514764D01*
X19124675Y5509684D01*
X19130009Y5509684D01*
X19145504Y5514764D01*
X19155918Y5525178D01*
X19160998Y5540672D01*
X19160998Y5546006D01*
X19155918Y5561500D01*
X19145504Y5571914D01*
X19130009Y5576994D01*
X19124675Y5576994D01*
X19109181Y5571914D01*
X19098768Y5561500D01*
X19093434Y5546006D01*
X19291300Y4534915D02*
G01*
X19291300Y4425950D01*
X19291300Y4534915D02*
G01*
X19338036Y4534915D01*
X19353529Y4529836D01*
X19358863Y4524502D01*
X19363943Y4514087D01*
X19363943Y4503673D01*
X19358863Y4493260D01*
X19353529Y4488179D01*
X19338036Y4483100D01*
X19291300Y4483100D01*
X19327622Y4483100D02*
G01*
X19363943Y4425950D01*
X19471131Y4534915D02*
G01*
X19419061Y4425950D01*
X19398234Y4534915D02*
G01*
X19471131Y4534915D01*
X18986500Y5944615D02*
G01*
X18986500Y5835650D01*
X18986500Y5944615D02*
G01*
X19033236Y5944615D01*
X19048729Y5939536D01*
X19054063Y5934202D01*
X19059143Y5923787D01*
X19059143Y5913373D01*
X19054063Y5902960D01*
X19048729Y5897879D01*
X19033236Y5892800D01*
X18986500Y5892800D01*
X19022822Y5892800D02*
G01*
X19059143Y5835650D01*
X19119595Y5944615D02*
G01*
X19103848Y5939536D01*
X19098768Y5929121D01*
X19098768Y5918707D01*
X19103848Y5908294D01*
X19114261Y5902960D01*
X19135090Y5897879D01*
X19150584Y5892800D01*
X19160998Y5882386D01*
X19166331Y5871971D01*
X19166331Y5856223D01*
X19160998Y5845810D01*
X19155918Y5840729D01*
X19140170Y5835650D01*
X19119595Y5835650D01*
X19103848Y5840729D01*
X19098768Y5845810D01*
X19093434Y5856223D01*
X19093434Y5871971D01*
X19098768Y5882386D01*
X19109181Y5892800D01*
X19124675Y5897879D01*
X19145504Y5902960D01*
X19155918Y5908294D01*
X19160998Y5918707D01*
X19160998Y5929121D01*
X19155918Y5939536D01*
X19140170Y5944615D01*
X19119595Y5944615D01*
X18707100Y4192015D02*
G01*
X18707100Y4083050D01*
X18707100Y4192015D02*
G01*
X18753836Y4192015D01*
X18769329Y4186936D01*
X18774663Y4181602D01*
X18779743Y4171187D01*
X18779743Y4160773D01*
X18774663Y4150360D01*
X18769329Y4145279D01*
X18753836Y4140200D01*
X18707100Y4140200D01*
X18743422Y4140200D02*
G01*
X18779743Y4083050D01*
X18881598Y4155694D02*
G01*
X18876518Y4140200D01*
X18866104Y4129786D01*
X18850609Y4124452D01*
X18845275Y4124452D01*
X18829781Y4129786D01*
X18819368Y4140200D01*
X18814034Y4155694D01*
X18814034Y4160773D01*
X18819368Y4176521D01*
X18829781Y4186936D01*
X18845275Y4192015D01*
X18850609Y4192015D01*
X18866104Y4186936D01*
X18876518Y4176521D01*
X18881598Y4155694D01*
X18881598Y4129786D01*
X18876518Y4103623D01*
X18866104Y4088129D01*
X18850609Y4083050D01*
X18840195Y4083050D01*
X18824448Y4088129D01*
X18819368Y4098544D01*
X15594329Y5676900D02*
G01*
X15485363Y5676900D01*
X15594329Y5676900D02*
G01*
X15594329Y5630163D01*
X15589250Y5614670D01*
X15583916Y5609336D01*
X15573502Y5604255D01*
X15563088Y5604255D01*
X15552674Y5609336D01*
X15547593Y5614670D01*
X15542513Y5630163D01*
X15542513Y5676900D01*
X15542513Y5640578D02*
G01*
X15485363Y5604255D01*
X15573502Y5569965D02*
G01*
X15578836Y5559552D01*
X15594329Y5543804D01*
X15485363Y5543804D01*
X15594329Y5478526D02*
G01*
X15589250Y5494020D01*
X15573502Y5504434D01*
X15547593Y5509513D01*
X15532100Y5509513D01*
X15505938Y5504434D01*
X15490443Y5494020D01*
X15485363Y5478526D01*
X15485363Y5468112D01*
X15490443Y5452363D01*
X15505938Y5441950D01*
X15532100Y5436870D01*
X15547593Y5436870D01*
X15573502Y5441950D01*
X15589250Y5452363D01*
X15594329Y5468112D01*
X15594329Y5478526D01*
X15303825Y5676900D02*
G01*
X15194859Y5676900D01*
X15303825Y5676900D02*
G01*
X15303825Y5630163D01*
X15298745Y5614670D01*
X15293411Y5609336D01*
X15282997Y5604255D01*
X15272583Y5604255D01*
X15262169Y5609336D01*
X15257089Y5614670D01*
X15252009Y5630163D01*
X15252009Y5676900D01*
X15252009Y5640578D02*
G01*
X15194859Y5604255D01*
X15282997Y5569965D02*
G01*
X15288331Y5559552D01*
X15303825Y5543804D01*
X15194859Y5543804D01*
X15282997Y5509513D02*
G01*
X15288331Y5499100D01*
X15303825Y5483605D01*
X15194859Y5483605D01*
X15012416Y5676900D02*
G01*
X14903450Y5676900D01*
X15012416Y5676900D02*
G01*
X15012416Y5630163D01*
X15007336Y5614670D01*
X15002002Y5609336D01*
X14991588Y5604255D01*
X14981174Y5604255D01*
X14970759Y5609336D01*
X14965679Y5614670D01*
X14960600Y5630163D01*
X14960600Y5676900D01*
X14960600Y5640578D02*
G01*
X14903450Y5604255D01*
X14991588Y5569965D02*
G01*
X14996922Y5559552D01*
X15012416Y5543804D01*
X14903450Y5543804D01*
X14986508Y5504434D02*
G01*
X14991588Y5504434D01*
X15002002Y5499100D01*
X15007336Y5494020D01*
X15012416Y5483605D01*
X15012416Y5462778D01*
X15007336Y5452363D01*
X15002002Y5447284D01*
X14991588Y5441950D01*
X14981174Y5441950D01*
X14970759Y5447284D01*
X14955266Y5457697D01*
X14903450Y5509513D01*
X14903450Y5436870D01*
X15036800Y1664715D02*
G01*
X15036800Y1586737D01*
X15041879Y1571244D01*
X15052293Y1560829D01*
X15068041Y1555750D01*
X15078456Y1555750D01*
X15093950Y1560829D01*
X15104363Y1571244D01*
X15109443Y1586737D01*
X15109443Y1664715D01*
X15143734Y1643887D02*
G01*
X15154147Y1649221D01*
X15169895Y1664715D01*
X15169895Y1555750D01*
X13525809Y4164594D02*
G01*
X13447831Y4164594D01*
X13432337Y4159514D01*
X13421923Y4149100D01*
X13416843Y4133352D01*
X13416843Y4122938D01*
X13421923Y4107444D01*
X13432337Y4097030D01*
X13447831Y4091950D01*
X13525809Y4091950D01*
X13499901Y4052326D02*
G01*
X13504981Y4052326D01*
X13515395Y4047246D01*
X13520729Y4041912D01*
X13525809Y4031498D01*
X13525809Y4010924D01*
X13520729Y4000510D01*
X13515395Y3995176D01*
X13504981Y3990096D01*
X13494567Y3990096D01*
X13484153Y3995176D01*
X13468659Y4005590D01*
X13416843Y4057660D01*
X13416843Y3984762D01*
X13525809Y114300D02*
G01*
X13447831Y114300D01*
X13432337Y109220D01*
X13421923Y98805D01*
X13416843Y83057D01*
X13416843Y72644D01*
X13421923Y57150D01*
X13432337Y46736D01*
X13447831Y41655D01*
X13525809Y41655D01*
X13525809Y-65531D02*
G01*
X13416843Y-13462D01*
X13525809Y7365D02*
G01*
X13525809Y-65531D01*
X13525809Y2139447D02*
G01*
X13447831Y2139447D01*
X13432337Y2134367D01*
X13421923Y2123953D01*
X13416843Y2108205D01*
X13416843Y2097791D01*
X13421923Y2082297D01*
X13432337Y2071883D01*
X13447831Y2066803D01*
X13525809Y2066803D01*
X13504981Y2032513D02*
G01*
X13510315Y2022099D01*
X13525809Y2006351D01*
X13416843Y2006351D01*
X13504981Y1972061D02*
G01*
X13510315Y1961647D01*
X13525809Y1946153D01*
X13416843Y1946153D01*
X19887184Y5499100D02*
G01*
X19965161Y5499100D01*
X19980656Y5504179D01*
X19991070Y5514594D01*
X19996150Y5530342D01*
X19996150Y5540755D01*
X19991070Y5556250D01*
X19980656Y5566663D01*
X19965161Y5571744D01*
X19887184Y5571744D01*
X19908011Y5606034D02*
G01*
X19902677Y5616447D01*
X19887184Y5632195D01*
X19996150Y5632195D01*
X19913091Y5671565D02*
G01*
X19908011Y5671565D01*
X19897598Y5676900D01*
X19892263Y5681979D01*
X19887184Y5692394D01*
X19887184Y5713221D01*
X19892263Y5723636D01*
X19897598Y5728715D01*
X19908011Y5734050D01*
X19918425Y5734050D01*
X19928840Y5728715D01*
X19944334Y5718302D01*
X19996150Y5666486D01*
X19996150Y5739129D01*
X13526516Y6197600D02*
G01*
X13448538Y6197600D01*
X13433043Y6192520D01*
X13422629Y6182105D01*
X13417550Y6166357D01*
X13417550Y6155944D01*
X13422629Y6140450D01*
X13433043Y6130036D01*
X13448538Y6124955D01*
X13526516Y6124955D01*
X13505688Y6090665D02*
G01*
X13511022Y6080252D01*
X13526516Y6064504D01*
X13417550Y6064504D01*
X13526516Y5978397D02*
G01*
X13453872Y6030213D01*
X13453872Y5952489D01*
X13526516Y5978397D02*
G01*
X13417550Y5978397D01*
X18694400Y7202876D02*
G01*
X18694400Y7280854D01*
X18689320Y7296348D01*
X18678906Y7306762D01*
X18663158Y7311842D01*
X18652743Y7311842D01*
X18637250Y7306762D01*
X18626836Y7296348D01*
X18621756Y7280854D01*
X18621756Y7202876D01*
X18524981Y7202876D02*
G01*
X18577052Y7202876D01*
X18582131Y7249612D01*
X18577052Y7244532D01*
X18561304Y7239198D01*
X18545809Y7239198D01*
X18530316Y7244532D01*
X18519902Y7254692D01*
X18514568Y7270440D01*
X18514568Y7280854D01*
X18519902Y7296348D01*
X18530316Y7306762D01*
X18545809Y7311842D01*
X18561304Y7311842D01*
X18577052Y7306762D01*
X18582131Y7301682D01*
X18587466Y7291268D01*
X15052004Y1599184D02*
G01*
X15052004Y1677162D01*
X15046924Y1692655D01*
X15036510Y1703070D01*
X15020762Y1708150D01*
X15010348Y1708150D01*
X14994854Y1703070D01*
X14984440Y1692655D01*
X14979360Y1677162D01*
X14979360Y1599184D01*
X14877506Y1635505D02*
G01*
X14882586Y1651000D01*
X14893000Y1661413D01*
X14908494Y1666747D01*
X14913828Y1666747D01*
X14929322Y1661413D01*
X14939736Y1651000D01*
X14945070Y1635505D01*
X14945070Y1630426D01*
X14939736Y1614678D01*
X14929322Y1604263D01*
X14913828Y1599184D01*
X14908494Y1599184D01*
X14893000Y1604263D01*
X14882586Y1614678D01*
X14877506Y1635505D01*
X14877506Y1661413D01*
X14882586Y1687576D01*
X14893000Y1703070D01*
X14908494Y1708150D01*
X14918908Y1708150D01*
X14934656Y1703070D01*
X14939736Y1692655D01*
X18834100Y1207515D02*
G01*
X18834100Y1129537D01*
X18839179Y1114044D01*
X18849593Y1103629D01*
X18865341Y1098550D01*
X18875756Y1098550D01*
X18891250Y1103629D01*
X18901663Y1114044D01*
X18906743Y1129537D01*
X18906743Y1207515D01*
X19003518Y1192021D02*
G01*
X18998184Y1202436D01*
X18982690Y1207515D01*
X18972275Y1207515D01*
X18956781Y1202436D01*
X18946368Y1186687D01*
X18941034Y1160779D01*
X18941034Y1134871D01*
X18946368Y1114044D01*
X18956781Y1103629D01*
X18972275Y1098550D01*
X18977609Y1098550D01*
X18993104Y1103629D01*
X19003518Y1114044D01*
X19008598Y1129537D01*
X19008598Y1134871D01*
X19003518Y1150365D01*
X18993104Y1160779D01*
X18977609Y1165860D01*
X18972275Y1165860D01*
X18956781Y1160779D01*
X18946368Y1150365D01*
X18941034Y1134871D01*
D11*
X17242731Y-171157D02*
G01*
X17229015Y-184873D01*
X17222157Y-205447D01*
X17222157Y-232625D01*
X17229015Y-252945D01*
X17242731Y-266661D01*
X17256447Y-266661D01*
X17269909Y-259803D01*
X17276767Y-252945D01*
X17283625Y-239483D01*
X17297341Y-198589D01*
X17303945Y-184873D01*
X17310803Y-178015D01*
X17324519Y-171157D01*
X17345093Y-171157D01*
X17358555Y-184873D01*
X17365413Y-205447D01*
X17365413Y-232625D01*
X17358555Y-252945D01*
X17345093Y-266661D01*
X17299152Y-463842D02*
G01*
X17299152Y-586524D01*
X17237684Y-525310D02*
G01*
X17360366Y-525310D01*
X17297339Y-714758D02*
G01*
X17297339Y-837440D01*
D10*
X17678400Y6617715D02*
G01*
X17678400Y6539737D01*
X17683479Y6524244D01*
X17693893Y6513829D01*
X17709641Y6508750D01*
X17720056Y6508750D01*
X17735550Y6513829D01*
X17745963Y6524244D01*
X17751043Y6539737D01*
X17751043Y6617715D01*
X17811495Y6617715D02*
G01*
X17795748Y6612636D01*
X17790668Y6602221D01*
X17790668Y6591808D01*
X17795748Y6581394D01*
X17806161Y6576060D01*
X17826990Y6570979D01*
X17842484Y6565900D01*
X17852898Y6555486D01*
X17858231Y6545071D01*
X17858231Y6529323D01*
X17852898Y6518910D01*
X17847818Y6513829D01*
X17832070Y6508750D01*
X17811495Y6508750D01*
X17795748Y6513829D01*
X17790668Y6518910D01*
X17785334Y6529323D01*
X17785334Y6545071D01*
X17790668Y6555486D01*
X17801081Y6565900D01*
X17816575Y6570979D01*
X17837404Y6576060D01*
X17847818Y6581394D01*
X17852898Y6591808D01*
X17852898Y6602221D01*
X17847818Y6612636D01*
X17832070Y6617715D01*
X17811495Y6617715D01*
X16635984Y7429500D02*
G01*
X16713961Y7429500D01*
X16729456Y7434579D01*
X16739870Y7444994D01*
X16744950Y7460742D01*
X16744950Y7471155D01*
X16739870Y7486650D01*
X16729456Y7497063D01*
X16713961Y7502144D01*
X16635984Y7502144D01*
X16656811Y7536434D02*
G01*
X16651477Y7546847D01*
X16635984Y7562595D01*
X16744950Y7562595D01*
X16635984Y7627873D02*
G01*
X16641063Y7612379D01*
X16656811Y7601965D01*
X16682720Y7596886D01*
X16698213Y7596886D01*
X16724375Y7601965D01*
X16739870Y7612379D01*
X16744950Y7627873D01*
X16744950Y7638287D01*
X16739870Y7654036D01*
X16724375Y7664450D01*
X16698213Y7669529D01*
X16682720Y7669529D01*
X16656811Y7664450D01*
X16641063Y7654036D01*
X16635984Y7638287D01*
X16635984Y7627873D01*
D12*
X17891353Y7277100D02*
G01*
X17700345Y7277100D01*
X17891353Y7277100D02*
G01*
X17891353Y7158989D01*
X17800421Y7277100D02*
G01*
X17800421Y7204455D01*
X17700345Y7277100D02*
G01*
X17700345Y7158989D01*
X17827599Y7098792D02*
G01*
X17700345Y7098792D01*
X17791277Y7098792D02*
G01*
X17818709Y7071613D01*
X17827599Y7053579D01*
X17827599Y7026147D01*
X17818709Y7008113D01*
X17791277Y6998970D01*
X17700345Y6998970D01*
X17637353Y7327900D02*
G01*
X17446345Y7255255D01*
X17637353Y7182358D02*
G01*
X17446345Y7255255D01*
X17637353Y7122413D02*
G01*
X17628209Y7113270D01*
X17637353Y7104379D01*
X17646497Y7113270D01*
X17637353Y7122413D01*
X17573599Y7113270D02*
G01*
X17446345Y7113270D01*
X17573599Y7044181D02*
G01*
X17446345Y7044181D01*
X17537277Y7044181D02*
G01*
X17564709Y7017004D01*
X17573599Y6998715D01*
X17573599Y6971537D01*
X17564709Y6953250D01*
X17537277Y6944360D01*
X17446345Y6944360D01*
X17383353Y7168134D02*
G01*
X17383353Y7258812D01*
X17301565Y7267955D01*
X17310709Y7258812D01*
X17319599Y7231634D01*
X17319599Y7204455D01*
X17310709Y7177023D01*
X17292421Y7158989D01*
X17265243Y7149845D01*
X17246955Y7149845D01*
X17219777Y7158989D01*
X17201489Y7177023D01*
X17192345Y7204455D01*
X17192345Y7231634D01*
X17201489Y7258812D01*
X17210633Y7267955D01*
X17228667Y7277100D01*
X17383353Y7089902D02*
G01*
X17192345Y7017004D01*
X17383353Y6944360D02*
G01*
X17192345Y7017004D01*
X17086193Y7322980D02*
G01*
X17104319Y7332441D01*
X17122030Y7351039D01*
X17130859Y7369230D01*
X17130224Y7405547D01*
X17120763Y7423673D01*
X17102414Y7441643D01*
X17083973Y7450213D01*
X17056638Y7458882D01*
X17011180Y7458087D01*
X16983913Y7448466D01*
X16966036Y7439263D01*
X16948071Y7420658D01*
X16939247Y7402215D01*
X16939879Y7365898D01*
X16949338Y7348026D01*
X16967941Y7330059D01*
X16986133Y7321232D01*
X17013560Y7321710D01*
X17012767Y7367170D02*
G01*
X17013560Y7321710D01*
X17132698Y7263838D02*
G01*
X16941721Y7260503D01*
X17132698Y7263838D02*
G01*
X16943941Y7133269D01*
X17134921Y7136602D02*
G01*
X16943941Y7133269D01*
X17135965Y7076668D02*
G01*
X16944987Y7073333D01*
X17135965Y7076668D02*
G01*
X17137077Y7012924D01*
X17128411Y6985589D01*
X17110697Y6966991D01*
X17092571Y6957527D01*
X17065553Y6948164D01*
X17020095Y6947372D01*
X16992511Y6955782D01*
X16974322Y6964608D01*
X16955716Y6982576D01*
X16946100Y7009589D01*
X16944987Y7073333D01*
D10*
X13257022Y7238492D02*
G01*
X13262356Y7228078D01*
X13272770Y7217663D01*
X13282929Y7212584D01*
X13303758Y7212584D01*
X13314172Y7217663D01*
X13324586Y7228078D01*
X13329920Y7238492D01*
X13335000Y7254239D01*
X13335000Y7280147D01*
X13329920Y7295642D01*
X13324586Y7306055D01*
X13314172Y7316470D01*
X13303758Y7321550D01*
X13282929Y7321550D01*
X13272770Y7316470D01*
X13262356Y7306055D01*
X13257022Y7295642D01*
X13222731Y7212584D02*
G01*
X13222731Y7321550D01*
X13222731Y7212584D02*
G01*
X13150088Y7321550D01*
X13150088Y7212584D02*
G01*
X13150088Y7321550D01*
X13115797Y7233412D02*
G01*
X13105384Y7228078D01*
X13089890Y7212584D01*
X13089890Y7321550D01*
X14642084Y7035800D02*
G01*
X14751050Y7035800D01*
X14642084Y7035800D02*
G01*
X14642084Y7072121D01*
X14647163Y7087870D01*
X14657577Y7098029D01*
X14667991Y7103363D01*
X14683740Y7108444D01*
X14709647Y7108444D01*
X14725141Y7103363D01*
X14735556Y7098029D01*
X14745970Y7087870D01*
X14751050Y7072121D01*
X14751050Y7035800D01*
X14642084Y7153147D02*
G01*
X14642084Y7210297D01*
X14683740Y7179310D01*
X14683740Y7194804D01*
X14688820Y7205218D01*
X14693900Y7210297D01*
X14709647Y7215631D01*
X14720061Y7215631D01*
X14735556Y7210297D01*
X14745970Y7199884D01*
X14751050Y7184389D01*
X14751050Y7168895D01*
X14745970Y7153147D01*
X14740890Y7148068D01*
X14730475Y7142734D01*
X20015200Y6412484D02*
G01*
X20015200Y6521450D01*
X20015200Y6412484D02*
G01*
X19947636Y6412484D01*
X20015200Y6464300D02*
G01*
X19973543Y6464300D01*
X19913345Y6433312D02*
G01*
X19902931Y6427978D01*
X19887438Y6412484D01*
X19887438Y6521450D01*
G36*
X20827288Y3479800D02*
G01*
X20827288Y3416300D01*
X20912988Y3416300D01*
X20912988Y3479800D01*
G37*
G36*
X20268488Y3479800D02*
G01*
X20271689Y3476599D01*
X20271689Y3416300D01*
X20357388Y3416300D01*
X20357388Y3479800D01*
G37*
G36*
X12253874Y7734300D02*
G01*
X12244324Y7724546D01*
X12235332Y7714284D01*
X12226950Y7703464D01*
X12219228Y7692186D01*
X12212218Y7680452D01*
X12205919Y7668310D01*
X12200382Y7655814D01*
X12195556Y7643012D01*
X12191542Y7629956D01*
X12188291Y7616698D01*
X12185853Y7603236D01*
X12184227Y7589672D01*
X12183414Y7576058D01*
X12183414Y7562342D01*
X12184227Y7548727D01*
X12185853Y7535164D01*
X12188291Y7521702D01*
X12191542Y7508443D01*
X12195556Y7495387D01*
X12200382Y7482586D01*
X12205919Y7470089D01*
X12212218Y7457948D01*
X12219228Y7446213D01*
X12226950Y7434935D01*
X12235332Y7424115D01*
X12244324Y7413853D01*
X12253874Y7404100D01*
G37*
G36*
X16895724Y5664200D02*
G01*
X16886174Y5654446D01*
X16877182Y5644184D01*
X16868800Y5633364D01*
X16861078Y5622086D01*
X16854068Y5610352D01*
X16847769Y5598210D01*
X16842232Y5585714D01*
X16837406Y5572912D01*
X16833392Y5559856D01*
X16830141Y5546598D01*
X16827703Y5533136D01*
X16826077Y5519572D01*
X16825264Y5505958D01*
X16825264Y5492242D01*
X16826077Y5478627D01*
X16827703Y5465064D01*
X16830141Y5451602D01*
X16833392Y5438343D01*
X16837406Y5425287D01*
X16842232Y5412486D01*
X16847769Y5399989D01*
X16854068Y5387848D01*
X16861078Y5376113D01*
X16868800Y5364835D01*
X16877182Y5354015D01*
X16886174Y5343753D01*
X16895724Y5334000D01*
G37*
G36*
X16895724Y6381750D02*
G01*
X16886174Y6371996D01*
X16877182Y6361734D01*
X16868800Y6350914D01*
X16861078Y6339636D01*
X16854068Y6327902D01*
X16847769Y6315760D01*
X16842232Y6303264D01*
X16837406Y6290462D01*
X16833392Y6277406D01*
X16830141Y6264148D01*
X16827703Y6250686D01*
X16826077Y6237122D01*
X16825264Y6223508D01*
X16825264Y6209792D01*
X16826077Y6196177D01*
X16827703Y6182614D01*
X16830141Y6169152D01*
X16833392Y6155893D01*
X16837406Y6142837D01*
X16842232Y6130036D01*
X16847769Y6117539D01*
X16854068Y6105398D01*
X16861078Y6093663D01*
X16868800Y6082385D01*
X16877182Y6071565D01*
X16886174Y6061303D01*
X16895724Y6051550D01*
G37*
G36*
X17945100Y5715000D02*
G01*
X17945100Y5257800D01*
X17956580Y5268722D01*
X17967502Y5280202D01*
X17977815Y5292242D01*
X17987467Y5304840D01*
X17996509Y5317845D01*
X18004840Y5331358D01*
X18012460Y5345226D01*
X18019369Y5359501D01*
X18025516Y5374132D01*
X18030901Y5389016D01*
X18035524Y5404205D01*
X18039384Y5419547D01*
X18042382Y5435142D01*
X18044617Y5450789D01*
X18046039Y5466588D01*
X18046649Y5482437D01*
X18046446Y5498287D01*
X18045430Y5514086D01*
X18043601Y5529834D01*
X18040959Y5545480D01*
X18039384Y5553252D01*
X18035524Y5568594D01*
X18030901Y5583783D01*
X18025516Y5598668D01*
X18019369Y5613298D01*
X18012460Y5627573D01*
X18004840Y5641441D01*
X17996509Y5654954D01*
X17987467Y5667959D01*
X17977815Y5680557D01*
X17967502Y5692597D01*
X17956580Y5704078D01*
G37*
G36*
X20472400Y8228685D02*
G01*
X20472400Y8142986D01*
X20535900Y8142986D01*
X20535900Y8228685D01*
G37*
G36*
X20472400Y7673086D02*
G01*
X20472400Y7584186D01*
X20475600Y7587386D01*
X20535900Y7587386D01*
X20535900Y7673086D01*
G37*
G36*
X17880584Y6399784D02*
G01*
X17880584Y6046216D01*
X17890388Y6056579D01*
X17899583Y6067552D01*
X17908117Y6078982D01*
X17916042Y6090869D01*
X17923205Y6103162D01*
X17929707Y6115913D01*
X17935448Y6128969D01*
X17940426Y6142380D01*
X17942661Y6149136D01*
X17946471Y6162903D01*
X17949519Y6176873D01*
X17951754Y6190945D01*
X17953177Y6205169D01*
X17953786Y6219444D01*
X17953583Y6233718D01*
X17952567Y6247942D01*
X17950738Y6262116D01*
X17948097Y6276136D01*
X17944642Y6290005D01*
X17942661Y6296863D01*
X17938038Y6310376D01*
X17932654Y6323584D01*
X17926558Y6336487D01*
X17919700Y6349034D01*
X17912181Y6361125D01*
X17903952Y6372809D01*
X17895062Y6383985D01*
X17885562Y6394653D01*
G37*
G36*
X17503800Y6313017D02*
G01*
X17503800Y6293002D01*
X17583810Y6293002D01*
X17583810Y6313017D01*
G37*
G36*
X17533823Y6342989D02*
G01*
X17533823Y6262979D01*
X17553787Y6262979D01*
X17553787Y6342989D01*
G37*
G36*
X13792200Y8137499D02*
G01*
X13792200Y8051800D01*
X13855700Y8051800D01*
X13855700Y8137499D01*
G37*
G36*
X13792200Y7581900D02*
G01*
X13792200Y7493000D01*
X13795400Y7496200D01*
X13855700Y7496200D01*
X13855700Y7581900D01*
G37*
D13*
X20970549Y4081271D02*
G01*
X20970549Y4102100D01*
X20776493Y4102100D01*
X20725693Y4152900D01*
X20725693Y4330700D01*
X20776493Y4381500D01*
X20970549Y4381500D01*
X20970549Y3573271D02*
G01*
X20970549Y3594100D01*
X20776493Y3594100D01*
X20725693Y3644900D01*
X20725693Y3822700D01*
X20776493Y3873500D01*
X20970549Y3873500D01*
X20363637Y3479800D02*
G01*
X20363637Y4495800D01*
X20827293Y3479800D02*
G01*
X20827293Y3416300D01*
X20912975Y3416300D01*
X20912975Y3479800D01*
X20271712Y3479800D02*
G01*
X20271712Y3416300D01*
X20357393Y3416300D01*
X20357393Y3479800D01*
X20970590Y3479800D02*
G01*
X20970590Y4495800D01*
X20150597Y4495800D02*
G01*
X20970590Y4495800D01*
X20150597Y3479800D02*
G01*
X20970590Y3479800D01*
X20150597Y3479800D02*
G01*
X20150597Y4495800D01*
X12584912Y7419212D02*
G01*
X12483312Y7419212D01*
X12533299Y7369200D02*
G01*
X12533299Y7470800D01*
X14561200Y6809445D02*
G01*
X14561200Y7439446D01*
X14561200Y7439446D02*
G01*
X14801199Y7439446D01*
X14801199Y7439446D02*
G01*
X14801199Y6809445D01*
X14801199Y6809445D02*
G01*
X14561200Y6809445D01*
X15272400Y6809699D02*
G01*
X15272400Y7439700D01*
X15272400Y7439700D02*
G01*
X15512399Y7439700D01*
X15512399Y7439700D02*
G01*
X15512399Y6809699D01*
X15512399Y6809699D02*
G01*
X15272400Y6809699D01*
X17226762Y5349112D02*
G01*
X17125162Y5349112D01*
X17175149Y5299100D02*
G01*
X17175149Y5400700D01*
X17226762Y6066662D02*
G01*
X17125162Y6066662D01*
X17175149Y6016650D02*
G01*
X17175149Y6118250D01*
X17602200Y5689600D02*
G01*
X17602200Y5588000D01*
X17551400Y5638800D02*
G01*
X17653000Y5638800D01*
X19870927Y8286247D02*
G01*
X19850100Y8286247D01*
X19850100Y8092191D01*
X19799300Y8041391D01*
X19621500Y8041391D01*
X19570700Y8092191D01*
X19570700Y8286247D01*
X20378927Y8286247D02*
G01*
X20358100Y8286247D01*
X20358100Y8092191D01*
X20307300Y8041391D01*
X20129500Y8041391D01*
X20078700Y8092191D01*
X20078700Y8286247D01*
X20472400Y7679334D02*
G01*
X19456400Y7679334D01*
X20472400Y8142991D02*
G01*
X20535900Y8142991D01*
X20535900Y8228672D01*
X20472400Y8228672D01*
X20472400Y7587409D02*
G01*
X20535900Y7587409D01*
X20535900Y7673091D01*
X20472400Y7673091D01*
X20472400Y8286287D02*
G01*
X19456400Y8286287D01*
X19456400Y7466294D02*
G01*
X19456400Y8286287D01*
X20472400Y7466294D02*
G01*
X20472400Y8286287D01*
X20472400Y7466294D02*
G01*
X19456400Y7466294D01*
X18921999Y6639900D02*
G01*
X18162000Y6639900D01*
X18921999Y6999899D02*
G01*
X18162000Y6999899D01*
X18921999Y6639900D02*
G01*
X18921999Y6999899D01*
X18794399Y6639900D02*
G01*
X18794399Y6999899D01*
X18162000Y6639900D02*
G01*
X18162000Y6999899D01*
D10*
X15938500Y8376958D02*
G01*
X14795500Y8376958D01*
X14160500Y8376958D01*
X14160500Y3296958D02*
G01*
X15938500Y3296958D01*
X16192500Y3550958D02*
G01*
X16192500Y8122958D01*
D14*
X13906500Y3804958D02*
G01*
X13906500Y3995458D01*
X13906500Y7868958D01*
X16192500Y6852958D02*
G01*
X16192500Y6662458D01*
D10*
X13906500Y8122958D02*
G01*
X13906500Y3550958D01*
D13*
X17797909Y4988687D02*
G01*
X18193890Y4988687D01*
X16985109Y4988687D02*
G01*
X17381090Y4988687D01*
X19427743Y4988689D02*
G01*
X19823724Y4988689D01*
X18636109Y4988687D02*
G01*
X19032090Y4988687D01*
X18671499Y6122868D02*
G01*
X19301500Y6122868D01*
X19301500Y6122868D02*
G01*
X19301500Y5882868D01*
X19301500Y5882868D02*
G01*
X18671499Y5882868D01*
X18671499Y5882868D02*
G01*
X18671499Y6122868D01*
X17452299Y4387199D02*
G01*
X18082300Y4387199D01*
X18082300Y4387199D02*
G01*
X18082300Y4147200D01*
X18082300Y4147200D02*
G01*
X17452299Y4147200D01*
X17452299Y4147200D02*
G01*
X17452299Y4387199D01*
X18671499Y6448833D02*
G01*
X19301500Y6448833D01*
X19301500Y6448833D02*
G01*
X19301500Y6208834D01*
X19301500Y6208834D02*
G01*
X18671499Y6208834D01*
X18671499Y6208834D02*
G01*
X18671499Y6448833D01*
X16918899Y4044299D02*
G01*
X17548900Y4044299D01*
X17548900Y4044299D02*
G01*
X17548900Y3804300D01*
X17548900Y3804300D02*
G01*
X16918899Y3804300D01*
X16918899Y3804300D02*
G01*
X16918899Y4044299D01*
X18671499Y5470933D02*
G01*
X19301500Y5470933D01*
X19301500Y5470933D02*
G01*
X19301500Y5230934D01*
X19301500Y5230934D02*
G01*
X18671499Y5230934D01*
X18671499Y5230934D02*
G01*
X18671499Y5470933D01*
X18976299Y4387199D02*
G01*
X19606300Y4387199D01*
X19606300Y4387199D02*
G01*
X19606300Y4147200D01*
X19606300Y4147200D02*
G01*
X18976299Y4147200D01*
X18976299Y4147200D02*
G01*
X18976299Y4387199D01*
X18671499Y5796899D02*
G01*
X19301500Y5796899D01*
X19301500Y5796899D02*
G01*
X19301500Y5556900D01*
X19301500Y5556900D02*
G01*
X18671499Y5556900D01*
X18671499Y5556900D02*
G01*
X18671499Y5796899D01*
X18392099Y4044299D02*
G01*
X19022100Y4044299D01*
X19022100Y4044299D02*
G01*
X19022100Y3804300D01*
X19022100Y3804300D02*
G01*
X18392099Y3804300D01*
X18392099Y3804300D02*
G01*
X18392099Y4044299D01*
X15326613Y6108778D02*
G01*
X15326613Y6001900D01*
X15326210Y5351899D02*
G01*
X15326210Y5245021D01*
X15211612Y6001900D02*
G01*
X15441615Y6001900D01*
X15441615Y6001900D02*
G01*
X15441615Y5351899D01*
X15438612Y5351899D02*
G01*
X15214615Y5351899D01*
X15211612Y5351899D02*
G01*
X15211612Y6001900D01*
X15036109Y6108778D02*
G01*
X15036109Y6001900D01*
X15035705Y5351899D02*
G01*
X15035705Y5245021D01*
X14921108Y6001900D02*
G01*
X15151110Y6001900D01*
X15151110Y6001900D02*
G01*
X15151110Y5351899D01*
X15148107Y5351899D02*
G01*
X14924110Y5351899D01*
X14921108Y5351899D02*
G01*
X14921108Y6001900D01*
X14744700Y6108778D02*
G01*
X14744700Y6001900D01*
X14744296Y5351899D02*
G01*
X14744296Y5245021D01*
X14629698Y6001900D02*
G01*
X14859701Y6001900D01*
X14859701Y6001900D02*
G01*
X14859701Y5351899D01*
X14856698Y5351899D02*
G01*
X14632701Y5351899D01*
X14629698Y5351899D02*
G01*
X14629698Y6001900D01*
X14163210Y1473200D02*
G01*
X14163210Y1219200D01*
X15941205Y1219200D01*
X15941205Y1473200D01*
X14163210Y1473200D01*
X12346696Y3476889D02*
G01*
X12651694Y3476889D01*
X12651694Y3281893D01*
X12341697Y3281893D01*
X12346696Y3984889D02*
G01*
X12651694Y3984889D01*
X12651694Y3789893D01*
X12341697Y3789893D01*
X12346696Y4492889D02*
G01*
X12651694Y4492889D01*
X12651694Y4297893D01*
X12341697Y4297893D01*
X12346696Y5000889D02*
G01*
X12651694Y5000889D01*
X12651694Y4805893D01*
X12341697Y4805893D01*
X13361700Y5166878D02*
G01*
X13361700Y3136884D01*
X12341712Y3136884D01*
X12341712Y5166878D01*
X13361700Y5166878D01*
X12346696Y-573404D02*
G01*
X12651694Y-573404D01*
X12651694Y-768400D01*
X12341697Y-768400D01*
X12346696Y-65404D02*
G01*
X12651694Y-65404D01*
X12651694Y-260400D01*
X12341697Y-260400D01*
X12346696Y442595D02*
G01*
X12651694Y442595D01*
X12651694Y247599D01*
X12341697Y247599D01*
X12346696Y950595D02*
G01*
X12651694Y950595D01*
X12651694Y755599D01*
X12341697Y755599D01*
X13361700Y1116584D02*
G01*
X13361700Y-913409D01*
X12341712Y-913409D01*
X12341712Y1116584D01*
X13361700Y1116584D01*
X12346696Y1451742D02*
G01*
X12651694Y1451742D01*
X12651694Y1256746D01*
X12341697Y1256746D01*
X12346696Y1959742D02*
G01*
X12651694Y1959742D01*
X12651694Y1764746D01*
X12341697Y1764746D01*
X12346696Y2467742D02*
G01*
X12651694Y2467742D01*
X12651694Y2272746D01*
X12341697Y2272746D01*
X12346696Y2975742D02*
G01*
X12651694Y2975742D01*
X12651694Y2780746D01*
X12341697Y2780746D01*
X13361700Y3141731D02*
G01*
X13361700Y1111737D01*
X12341712Y1111737D01*
X12341712Y3141731D01*
X13361700Y3141731D01*
X21066297Y6186804D02*
G01*
X20761299Y6186804D01*
X20761299Y6381800D01*
X21071296Y6381800D01*
X21066297Y5678804D02*
G01*
X20761299Y5678804D01*
X20761299Y5873800D01*
X21071296Y5873800D01*
X21066297Y5170804D02*
G01*
X20761299Y5170804D01*
X20761299Y5365800D01*
X21071296Y5365800D01*
X21066297Y4662804D02*
G01*
X20761299Y4662804D01*
X20761299Y4857800D01*
X21071296Y4857800D01*
X20051293Y4496815D02*
G01*
X20051293Y6526809D01*
X21071281Y6526809D01*
X21071281Y4496815D01*
X20051293Y4496815D01*
X12347402Y5509895D02*
G01*
X12652400Y5509895D01*
X12652400Y5314899D01*
X12342403Y5314899D01*
X12347402Y6017895D02*
G01*
X12652400Y6017895D01*
X12652400Y5822899D01*
X12342403Y5822899D01*
X12347402Y6525895D02*
G01*
X12652400Y6525895D01*
X12652400Y6330899D01*
X12342403Y6330899D01*
X12347402Y7033895D02*
G01*
X12652400Y7033895D01*
X12652400Y6838899D01*
X12342403Y6838899D01*
X13362406Y7199884D02*
G01*
X13362406Y5169890D01*
X12342418Y5169890D01*
X12342418Y7199884D01*
X13362406Y7199884D01*
X18273379Y8381989D02*
G01*
X18273379Y8076994D01*
X18078383Y8076994D01*
X18078383Y8386991D01*
X18781389Y8382000D02*
G01*
X18781389Y8076999D01*
X18586394Y8076999D01*
X18586394Y8386996D01*
X19289397Y8381992D02*
G01*
X19289397Y8076991D01*
X19094399Y8076991D01*
X19094399Y8386991D01*
X19454393Y7366985D02*
G01*
X17929402Y7366985D01*
X17929402Y8386973D01*
X19454393Y8386973D01*
X19454393Y7366985D01*
X14630984Y2778297D02*
G01*
X14630984Y2473302D01*
X14435988Y2473302D01*
X14435988Y2783298D01*
X15138994Y2778307D02*
G01*
X15138994Y2473307D01*
X14943998Y2473307D01*
X14943998Y2783304D01*
X15647001Y2778300D02*
G01*
X15647001Y2473299D01*
X15452003Y2473299D01*
X15452003Y2783298D01*
X15811997Y1763293D02*
G01*
X14287007Y1763293D01*
X14287007Y2783281D01*
X15811997Y2783281D01*
X15811997Y1763293D01*
X17420701Y-645457D02*
G01*
X17674701Y-645457D01*
X17420701Y-922804D02*
G01*
X17420701Y-118798D01*
X17674701Y-922804D02*
G01*
X17674701Y-118798D01*
X17420701Y-118798D02*
G01*
X17674701Y-118798D01*
X17420701Y-922804D02*
G01*
X17674701Y-922804D01*
X17157700Y1065199D02*
G01*
X20523708Y1065199D01*
X20523708Y-1574800D01*
X17157700Y-1574800D01*
X17157700Y1065199D01*
D15*
X17784696Y8103750D02*
G01*
X17784696Y6589900D01*
X17784699Y6589900D02*
G01*
X16784700Y6589900D01*
X16784700Y8104901D01*
X17584089Y8304898D02*
G01*
X16984700Y8304900D01*
D13*
X13190727Y8195055D02*
G01*
X13169900Y8195055D01*
X13169900Y8001000D01*
X13119100Y7950200D01*
X12941300Y7950200D01*
X12890500Y8001000D01*
X12890500Y8195055D01*
X13698727Y8195055D02*
G01*
X13677900Y8195055D01*
X13677900Y8001000D01*
X13627100Y7950200D01*
X13449300Y7950200D01*
X13398500Y8001000D01*
X13398500Y8195055D01*
X13792200Y7588143D02*
G01*
X12776200Y7588143D01*
X13792200Y8051800D02*
G01*
X13855700Y8051800D01*
X13855700Y8137481D01*
X13792200Y8137481D01*
X13792200Y7496218D02*
G01*
X13855700Y7496218D01*
X13855700Y7581900D01*
X13792200Y7581900D01*
X13792200Y8195096D02*
G01*
X12776200Y8195096D01*
X12776200Y7375103D02*
G01*
X12776200Y8195096D01*
X13792200Y7375103D02*
G01*
X13792200Y8195096D01*
X13792200Y7375103D02*
G01*
X12776200Y7375103D01*
X14856800Y6681200D02*
G01*
X14856800Y7441199D01*
X15216799Y6681200D02*
G01*
X15216799Y7441199D01*
X14856800Y6681200D02*
G01*
X15216799Y6681200D01*
X14856800Y6808800D02*
G01*
X15216799Y6808800D01*
X14856800Y7441199D02*
G01*
X15216799Y7441199D01*
X20089799Y6781800D02*
G01*
X20159799Y6781800D01*
X19889800Y6781800D02*
G01*
X19819800Y6781800D01*
X19349798Y6631812D02*
G01*
X19349798Y6931812D01*
X20629801Y6631812D02*
G01*
X20629801Y6931812D01*
X20629801Y6631812D02*
G01*
X20396222Y6631812D01*
X20163375Y6631812D02*
G01*
X19349798Y6631812D01*
X19349798Y6931812D02*
G01*
X19583384Y6931812D01*
X19816216Y6931812D02*
G01*
X20629801Y6931799D01*
D10*
G75*
G01*
X13906500Y3550968D02*
G03*
X14160500Y3296968I253999J0D01*
G75*
G01*
X15938495Y3296968D02*
G03*
X16192495Y3550968I0J254000D01*
G75*
G01*
X16192495Y8122958D02*
G03*
X15938495Y8376958I-254000J1D01*
G75*
G01*
X14160500Y8376958D02*
G03*
X13906500Y8122958I-1J-253999D01*
D13*
G75*
G01*
X18237200Y4710201D02*
G02*
X17754600Y4710201I-241300J168461D01*
G75*
G01*
X17424400Y4710201D02*
G02*
X16941800Y4710201I-241300J168461D01*
G75*
G01*
X19867034Y4710204D02*
G02*
X19384434Y4710204I-241300J168461D01*
G75*
G01*
X19075400Y4710201D02*
G02*
X18592800Y4710201I-241300J168461D01*
D16*
G75*
G01*
X17640300Y7361301D02*
G03*
X17641011Y7361271I13J-8001D01*
D15*
G75*
G01*
X16984701Y8304901D02*
G03*
X16784701Y8104901I0J-200000D01*
G75*
G01*
X17784696Y8103751D02*
G03*
X17584090Y8304898I-199996J1149D01*
D13*
G75*
G01*
X20089800Y6781800D02*
G02*
X19989800Y6781800I-50000J1127D01*
G75*
G01*
X19889724Y6781800D02*
G02*
X19989800Y6781800I50038J0D01*
D18*
G75*
G01
X12683312Y7569200D02*
G03X12683312Y7569200I-250012J0D01*
G75*
G01
X17325162Y5499100D02*
G03X17325162Y5499100I-250012J0D01*
G75*
G01
X17325162Y6216650D02*
G03X17325162Y6216650I-250012J0D01*
D13*
G75*
G01
X18044160Y5486400D02*
G03X18044160Y5486400I-314960J0D01*
G75*
G01
X17953812Y6223000D02*
G03X17953812Y6223000I-250012J0D01*
M02*
