G04 Layer: TopLayer*
G04 EasyEDA v6.5.51, 2026-03-12 23:55:36*
G04 53dc0e6eed4946769a20938672dcbcd5,63f6a820c93240c08cc213f52a56dcaa,10*
G04 Gerber Generator version 0.2*
G04 Scale: 100 percent, Rotated: No, Reflected: No *
G04 Dimensions in millimeters *
G04 leading zeros omitted , absolute positions ,4 integer and 5 decimal *
%FSLAX45Y45*%
%MOMM*%

%ADD10C,1.6000*%
%ADD11C,1.5240*%
%ADD12C,3.0000*%
%ADD13C,2.2000*%
%ADD14C,1.3000*%
%ADD15R,1.4986X1.4986*%
%ADD16C,1.5000*%
%ADD17R,1.3000X1.3000*%
%ADD18R,0.0175X1.3000*%
%ADD19R,1.6000X1.6000*%
%ADD20R,1.6000X1.5999*%

%LPD*%
D10*
G01*
X17741900Y3155950D03*
G01*
X17741900Y2889250D03*
G01*
X17741900Y2647950D03*
D11*
G01*
X17741900Y2381250D03*
D10*
G01*
X17995900Y3155950D03*
G01*
X18249900Y3155950D03*
G01*
X17741900Y2139950D03*
G01*
X17741900Y1885950D03*
G01*
X17741900Y1631950D03*
G01*
X17741900Y1377950D03*
D12*
G01*
X20688300Y3016250D03*
G01*
X20688300Y2516962D03*
G01*
X20688300Y1492250D03*
G01*
X20688300Y2000250D03*
D13*
G01*
X20560588Y3733800D03*
G01*
X20560588Y4241800D03*
D14*
G01*
X12533299Y7569200D03*
G01*
X12333300Y7569200D03*
G01*
X14681200Y6609435D03*
G01*
X14681200Y7639456D03*
G01*
X15392400Y6609689D03*
G01*
X15392400Y7639710D03*
G01*
X17175149Y5499100D03*
G01*
X16975150Y5499100D03*
G01*
X17175149Y6216650D03*
G01*
X16975150Y6216650D03*
G01*
X17602200Y5486400D03*
G01*
X17856200Y5486400D03*
D13*
G01*
X20218400Y7876286D03*
G01*
X19710400Y7876286D03*
D10*
G01*
X19122009Y6819900D03*
G01*
X17961991Y6819900D03*
D15*
G01*
X14033500Y3931945D03*
D16*
G01*
X14033500Y4185945D03*
G01*
X14033500Y4439945D03*
G01*
X14033500Y4693945D03*
G01*
X14033500Y4947945D03*
G01*
X14033500Y5201945D03*
G01*
X14033500Y5455945D03*
G01*
X14033500Y5709945D03*
G01*
X14033500Y5963945D03*
G01*
X14033500Y6217945D03*
G01*
X14033500Y6471945D03*
G01*
X14033500Y6725945D03*
G01*
X14033500Y6979945D03*
G01*
X14033500Y7233945D03*
G01*
X14033500Y7487945D03*
G01*
X14033500Y7741945D03*
G01*
X16065500Y3931945D03*
G01*
X16065500Y4185945D03*
G01*
X16065500Y4439945D03*
G01*
X16065500Y4693945D03*
G01*
X16065500Y4947945D03*
G01*
X16065500Y5201945D03*
G01*
X16065500Y5455945D03*
G01*
X16065500Y5709945D03*
G01*
X16065500Y5963945D03*
G01*
X16065500Y6217945D03*
G01*
X16065500Y6471945D03*
D15*
G01*
X16065500Y6725945D03*
D17*
G01*
X18249900Y4838700D03*
D14*
G01*
X17995900Y4838700D03*
G01*
X17741900Y4838700D03*
D17*
G01*
X17437100Y4838700D03*
D14*
G01*
X17183100Y4838700D03*
G01*
X16929100Y4838700D03*
D17*
G01*
X19879741Y4838700D03*
D14*
G01*
X19625741Y4838700D03*
G01*
X19371741Y4838700D03*
D17*
G01*
X19088100Y4838700D03*
D14*
G01*
X18834100Y4838700D03*
G01*
X18580100Y4838700D03*
G01*
X18471489Y6002883D03*
G01*
X19501510Y6002883D03*
G01*
X17252289Y4267200D03*
G01*
X18282310Y4267200D03*
G01*
X18471489Y6328816D03*
G01*
X19501510Y6328816D03*
G01*
X16718889Y3924300D03*
G01*
X17748910Y3924300D03*
G01*
X18471489Y5350916D03*
G01*
X19501510Y5350916D03*
G01*
X18776289Y4267200D03*
G01*
X19806310Y4267200D03*
G01*
X18471489Y5676900D03*
G01*
X19501510Y5676900D03*
G01*
X18192089Y3924300D03*
G01*
X19222110Y3924300D03*
G01*
X15326613Y6201892D03*
G01*
X15326613Y5151907D03*
G01*
X15036114Y6201892D03*
G01*
X15036114Y5151907D03*
G01*
X14744700Y6201892D03*
G01*
X14744700Y5151907D03*
D10*
G01*
X14934209Y1346200D03*
G01*
X14680209Y1346200D03*
G01*
X15188209Y1346200D03*
G01*
X15442209Y1346200D03*
D13*
G01*
X12851688Y3897884D03*
G01*
X12851688Y4405884D03*
G01*
X12851688Y4913884D03*
G01*
X12851688Y3389884D03*
G01*
X12851688Y-152400D03*
G01*
X12851688Y355600D03*
G01*
X12851688Y863600D03*
G01*
X12851688Y-660400D03*
G01*
X12851688Y1872742D03*
G01*
X12851688Y2380742D03*
G01*
X12851688Y2888742D03*
G01*
X12851688Y1364742D03*
G01*
X20561300Y5765800D03*
G01*
X20561300Y5257800D03*
G01*
X20561300Y4749800D03*
G01*
X20561300Y6273800D03*
G01*
X12852400Y5930900D03*
G01*
X12852400Y6438900D03*
G01*
X12852400Y6946900D03*
G01*
X12852400Y5422900D03*
G01*
X19202400Y7876997D03*
G01*
X18694400Y7876997D03*
G01*
X18186400Y7876997D03*
G01*
X15560014Y2273300D03*
G01*
X15052014Y2273300D03*
G01*
X14544014Y2273300D03*
D10*
G01*
X17547691Y-266801D03*
G01*
X17547691Y-520801D03*
D19*
G01*
X17547691Y-774801D03*
D14*
G01*
X17603800Y6223000D03*
G01*
X17803799Y6223000D03*
D10*
G01*
X17665700Y6883908D03*
G01*
X17411700Y6883908D03*
G01*
X17157700Y6883908D03*
G01*
X16903700Y6883908D03*
D13*
G01*
X13538200Y7785100D03*
G01*
X13030200Y7785100D03*
D14*
G01*
X15036800Y6481190D03*
G01*
X15036800Y7641209D03*
D10*
G01*
X20279791Y6671792D03*
G01*
X19699808Y6891807D03*
D16*
G01*
X13665301Y4813198D03*
G01*
X13665200Y4559300D03*
G01*
X13665200Y4305300D03*
D20*
G01*
X18224500Y-520700D03*
G01*
X17868900Y-520700D03*
M02*
